<svg version="1" xmlns="http://www.w3.org/2000/svg" width="933.333" height="933.333" viewBox="0 0 700.000000 700.000000"><path d="M346.5 53.2c-2.1 3.4-4.7 7.9-5.8 9.8-4.5 8.1-70 121.1-71.7 124-.5.8-11.8 20.4-25.1 43.5-22.1 38.3-28.2 49-33.8 58.7-1 1.8-9.3 16.2-18.5 32.1-9.2 15.8-17.5 30.2-18.5 32-1 1.7-11.8 20.4-23.9 41.4-12.2 21-23.2 40.2-24.5 42.5-4.3 7.7-6.3 11.2-11.4 19.8-2.8 4.7-6 10.1-7.1 12-3.6 6.4-35.7 62.1-48.7 84.5-7 12.1-13.3 22.9-13.9 24-2.3 4.1-20.7 36.1-21.6 37.5-.6.8-5.6 9.6-11.4 19.5l-10.3 18 174.8.3c96.2.1 253.6.1 349.8 0l174.9-.3-4.7-8c-2.6-4.4-5.9-10-7.3-12.5-1.4-2.5-9.9-17.3-19-33s-20.8-35.9-26-45c-5.3-9.1-14.6-25.3-20.8-36-6.2-10.7-15.4-26.7-20.5-35.5s-16.8-29.1-26-45c-9.2-16-17.9-31.1-19.4-33.6-1.4-2.5-6.4-11.1-11.1-19.2-4.7-8.1-10.1-17.5-12.1-20.9-4.9-8.8-52.3-90.7-54.8-94.9-1.1-1.9-3.3-5.7-4.8-8.4-1.5-2.8-3.2-5.8-3.8-6.7-.9-1.5-2.5-4.3-10.2-17.8-1.1-1.9-11.8-20.4-23.8-41-11.9-20.6-22.7-39.3-24-41.5-1.2-2.2-6.3-11-11.2-19.5-10-17.2-30.9-53.6-34-59-1.1-1.9-4.7-8-7.9-13.5-3.1-5.5-6.3-11.1-7-12.3-1.2-2.3-1.3-2.2-4.9 4zM272 395.5c0 .3-1.2 3.3-2.6 6.7-4.1 9.8-6.1 21.4-5.9 33.6.2 10 2.3 22.9 4.4 26.9.5 1 2.1 4.7 3.7 8.2 7.5 16.8 22.7 32.4 39.5 40.7 6.2 3.1 11.8 5.1 21.9 7.9 5 1.4 24.5 1.4 32 0 36.2-6.6 62.5-32.8 70.6-70 .9-4.4 1.2-25.6.4-28.5-.4-1.4-1.3-5-2-8s-2.3-8.2-3.6-11.4c-1.3-3.3-2.3-6.1-2.1-6.3.2-.1 5.5 1.5 11.8 3.6 40.8 13.7 74.4 33.8 106.9 64l5.5 5.1-5.3 5c-42.6 40.2-96.7 66.9-152.7 75.4-24.3 3.7-61.6 4.2-80.7 1.1-1.3-.2-4.5-.7-7.3-1-9.3-1.3-12.2-1.9-25.5-5.1-11.3-2.8-33.9-10.1-35.4-11.5-.6-.5-1.6-.9-2.4-.9-2.3 0-27-12-37.7-18.4-18.8-11.1-35.8-23.8-51-38l-7-6.6 5.5-5.1c8.7-8.1 22.1-19.1 29.6-24.5 3.8-2.6 7.1-5.1 7.4-5.4 3.1-3.4 45.6-25.9 53.5-28.3 1.1-.4 7.6-2.6 14.5-5.1 13-4.7 14-4.9 14-4.1z"/></svg>